<svg width="32" height="32" viewBox="0 0 32 32" fill="none" xmlns="http://www.w3.org/2000/svg">
  <!-- Fundo principal do chip -->
  <rect x="4" y="4" width="24" height="24" rx="2" fill="#0F172A"/>
  
  <!-- Bordas do chip -->
  <rect x="8" y="8" width="16" height="16" rx="1" stroke="#38BDF8" stroke-width="1.5"/>
  
  <!-- Pinos do chip -->
  <rect x="2" y="12" width="4" height="2" fill="#38BDF8"/>
  <rect x="2" y="16" width="4" height="2" fill="#38BDF8"/>
  <rect x="2" y="20" width="4" height="2" fill="#38BDF8"/>
  
  <rect x="26" y="12" width="4" height="2" fill="#38BDF8"/>
  <rect x="26" y="16" width="4" height="2" fill="#38BDF8"/>
  <rect x="26" y="20" width="4" height="2" fill="#38BDF8"/>
  
  <rect x="12" y="2" width="2" height="4" fill="#38BDF8"/>
  <rect x="16" y="2" width="2" height="4" fill="#38BDF8"/>
  <rect x="20" y="2" width="2" height="4" fill="#38BDF8"/>
  
  <rect x="12" y="26" width="2" height="4" fill="#38BDF8"/>
  <rect x="16" y="26" width="2" height="4" fill="#38BDF8"/>
  <rect x="20" y="26" width="2" height="4" fill="#38BDF8"/>
  
  <!-- Circuitos internos -->
  <path d="M12 12H20M12 16H20M12 20H20" stroke="#38BDF8" stroke-width="1" stroke-linecap="round"/>
  <path d="M16 12V20" stroke="#38BDF8" stroke-width="1" stroke-linecap="round"/>
  
  <!-- Pontos de conexão -->
  <circle cx="12" cy="12" r="1" fill="#38BDF8"/>
  <circle cx="16" cy="12" r="1" fill="#38BDF8"/>
  <circle cx="20" cy="12" r="1" fill="#38BDF8"/>
  <circle cx="12" cy="16" r="1" fill="#38BDF8"/>
  <circle cx="16" cy="16" r="1.5" fill="#38BDF8"/>
  <circle cx="20" cy="16" r="1" fill="#38BDF8"/>
  <circle cx="12" cy="20" r="1" fill="#38BDF8"/>
  <circle cx="16" cy="20" r="1" fill="#38BDF8"/>
  <circle cx="20" cy="20" r="1" fill="#38BDF8"/>
</svg> 